<svg width="16" height="23" viewBox="0 0 16 23" fill="none" xmlns="http://www.w3.org/2000/svg">
<path d="M7.99993 6.54546C8.98214 6.54546 9.77773 5.56911 9.77773 4.36362C9.77773 3.95453 9.6844 3.56728 9.5244 3.24L7.99993 0L6.47547 3.24C6.31547 3.56728 6.22214 3.95453 6.22214 4.36362C6.22214 5.56911 7.01772 6.54546 7.99993 6.54546Z" fill="#EC6330"/>
<path d="M11.1271 15.5809L11.3092 15.8044C11.3092 15.8044 11.3092 15.8044 11.3093 15.8044C12.0546 16.7191 13.0949 17.28 14.2578 17.28C14.4483 17.28 14.699 17.3484 14.8791 17.4617C14.9489 17.5056 14.9838 17.5387 15 17.5578V21.6436C15 21.6815 14.994 21.7119 14.9867 21.7345H1.01326C1.006 21.7119 1 21.6815 1 21.6436V17.5577C1.01622 17.5385 1.05112 17.5055 1.12085 17.4616C1.30103 17.3483 1.55174 17.28 1.74221 17.28C2.90259 17.28 3.94456 16.7212 4.68338 15.8026L4.86489 15.5809L5.04703 15.8044C5.04704 15.8044 5.04704 15.8044 5.04704 15.8044C6.60693 17.7188 9.38302 17.7191 10.9433 15.8054C10.9436 15.8051 10.9439 15.8047 10.9442 15.8044L11.1271 15.5809ZM15.0124 17.5766C15.0119 17.5767 15.0099 17.5738 15.0076 17.5676C15.0117 17.5735 15.0128 17.5766 15.0124 17.5766ZM0.987572 17.5765C0.98713 17.5764 0.988278 17.5734 0.992343 17.5675C0.990046 17.5737 0.988013 17.5766 0.987572 17.5765Z" stroke="#EC6330" stroke-width="2"/>
<path d="M3.34651 12.0351H8.92398H12.6424C13.3551 12.0351 13.948 12.5847 13.9549 13.2703V17.0351C13.9549 17.568 14.4127 18 14.9775 18C15.5422 18 16 17.568 16 17.0351V13.2631C15.9889 11.521 14.4885 10.1053 12.6424 10.1053H10.2254C9.60935 10.1053 9.10992 9.63398 9.10992 9.05263C9.10992 8.47128 8.61049 8 7.99441 8C7.37833 8 6.87889 8.47128 6.87889 9.05263C6.87889 9.63398 6.37946 10.1053 5.76338 10.1053H3.34651C1.50033 10.1053 0 11.521 0 13.2631V17.0351C0 17.568 0.457808 18 1.02254 18C1.58728 18 2.04509 17.568 2.04509 17.0351V13.2631C2.04509 12.5868 2.6298 12.0351 3.34651 12.0351Z" fill="#EC6330"/>
</svg>
