<svg width="24" height="24" viewBox="0 0 24 24" fill="none" xmlns="http://www.w3.org/2000/svg">
<g clip-path="url(#clip0)">
<circle cx="12" cy="12" r="11" fill="#A6FE05"/>
<path d="M11.86 0C5.32025 0 0 5.32025 0 11.86C0 18.3997 5.32025 23.72 11.86 23.72C18.3997 23.72 23.72 18.3997 23.72 11.86C23.72 5.32025 18.3997 0 11.86 0ZM19.6219 5.76206C19.7474 5.92155 19.8709 6.08274 19.9865 6.24971C20.0514 6.34309 20.111 6.44009 20.1728 6.5354C20.2736 6.692 20.3716 6.85101 20.464 7.01364C20.5226 7.11788 20.5791 7.22381 20.6339 7.32998C20.7183 7.49357 20.7984 7.65958 20.8742 7.828C20.9229 7.93731 20.9719 8.04662 21.0168 8.15761C21.0885 8.33472 21.1534 8.51545 21.2147 8.69738C21.2511 8.80451 21.2897 8.91092 21.3223 9.01999C21.385 9.22798 21.4369 9.44104 21.4859 9.65459C21.5057 9.74097 21.5308 9.82542 21.5481 9.91301C21.608 10.21 21.6543 10.5114 21.6864 10.8174C17.0695 10.33 13.39 6.6505 12.9026 2.03361C13.2086 2.0657 13.51 2.11203 13.807 2.17187C13.8946 2.18973 13.979 2.21434 14.0654 2.23413C14.2794 2.28311 14.492 2.33499 14.7 2.39772C14.8086 2.4303 14.915 2.46939 15.0226 2.50534C15.2046 2.56711 15.3848 2.63153 15.5624 2.7032C15.6734 2.74808 15.7827 2.79706 15.892 2.8458C16.0604 2.92157 16.2264 3.00168 16.39 3.08613C16.4962 3.14138 16.6021 3.19736 16.7064 3.256C16.869 3.34793 17.028 3.44638 17.1846 3.54724C17.2806 3.60829 17.3769 3.66861 17.4703 3.73352C17.6373 3.84909 17.7984 3.97264 17.9579 4.09811C18.0332 4.15747 18.1107 4.21272 18.1843 4.27401C18.642 4.65598 19.064 5.07848 19.446 5.53573C19.5073 5.60884 19.563 5.68678 19.6219 5.76206ZM9.91253 21.5486C9.82494 21.5308 9.74049 21.5061 9.65411 21.4864C9.44008 21.4374 9.2275 21.3855 9.01951 21.3228C8.91092 21.2902 8.80451 21.2511 8.6969 21.2151C8.51496 21.1534 8.33472 21.0889 8.15713 21.0173C8.04613 20.9724 7.93683 20.9234 7.82752 20.8747C7.6591 20.7989 7.49309 20.7188 7.32949 20.6344C7.22333 20.5791 7.1174 20.5231 7.01316 20.4645C6.85053 20.3726 6.69152 20.2741 6.53492 20.1735C6.43889 20.1122 6.34261 20.0519 6.24923 19.987C6.08226 19.8714 5.92107 19.7478 5.76158 19.6224C5.68629 19.563 5.60884 19.5078 5.53525 19.4465C5.07751 19.0645 4.65549 18.642 4.27353 18.1848C4.21224 18.1116 4.15698 18.0337 4.09763 17.9584C3.97215 17.7989 3.84861 17.6377 3.73303 17.4708C3.66813 17.3774 3.60829 17.2806 3.54651 17.1851C3.4459 17.0285 3.34793 16.8695 3.25552 16.7068C3.19688 16.6026 3.14042 16.4967 3.08565 16.3905C3.00119 16.2269 2.92108 16.0609 2.84532 15.8925C2.79658 15.7832 2.7476 15.6739 2.70272 15.5629C2.63105 15.3858 2.56614 15.205 2.50486 15.0231C2.46842 14.916 2.42981 14.8098 2.39724 14.7005C2.3345 14.4925 2.28263 14.2794 2.23364 14.0659C2.21386 13.9795 2.18876 13.8951 2.17139 13.8075C2.11155 13.5104 2.06522 13.2091 2.03289 12.9031C6.65002 13.3905 10.3295 17.07 10.8169 21.6871C10.5109 21.6548 10.2096 21.6084 9.91253 21.5486ZM12.8003 21.6958C12.3033 15.9818 7.73873 11.4172 2.02468 10.9202C2.47083 6.22003 6.22003 2.47083 10.9202 2.02468C11.4172 7.73873 15.9818 12.3033 21.6958 12.8003C21.2496 17.5004 17.5004 21.2496 12.8003 21.6958Z" fill="#1A1A1C"/>
</g>
<defs>
<clipPath id="clip0">
<rect width="23.72" height="23.72" fill="white"/>
</clipPath>
</defs>
</svg>
