<svg width="21" height="20" viewBox="0 0 21 20" fill="none" xmlns="http://www.w3.org/2000/svg">
<circle cx="7.59947" cy="11.8993" r="6.59947" stroke="#EC6330" stroke-width="2"/>
<path fill-rule="evenodd" clip-rule="evenodd" d="M13.1373 0.500146C13.1373 0.500146 18.9562 0.497171 19.0031 0.5001C20.0376 0.56371 20.0824 1.26259 20.0841 1.54339V6.94792C20.0841 7.53004 19.6141 8.00126 19.0332 8.00126C18.452 8.00126 17.9828 7.53004 17.9828 6.94792V4.06646L12.5568 8.91696L12 8.00003L11.0001 6.50003C11.3481 6.65022 10.7185 7.23814 11.0311 7.45608L16.3315 2.7206L13.1653 2.78551H13.1515C12.5765 2.78551 12.1061 2.23269 12.099 1.65643C12.0911 1.07473 12.556 0.50726 13.1373 0.500146Z" fill="#EC6330"/>
</svg>
