<svg width="18" height="17" viewBox="0 0 18 17" fill="none" xmlns="http://www.w3.org/2000/svg">
<path d="M14.0144 3.18704H17.0001V5.09376C17.0001 6.90256 15.7188 8.41211 14.0144 8.76439V3.18704ZM17.0001 3.1862C17 3.18618 17 3.18619 17.0001 3.18621L17.0001 3.1862Z" stroke="#EC6330" stroke-width="2" stroke-linecap="round" stroke-linejoin="round"/>
<path d="M1 3.18704V3.18621C1.00009 3.18614 0.999944 3.18627 0.999441 3.18648C0.999451 3.18646 0.99946 3.18644 0.99947 3.18642L0.99975 3.18552L0.999984 3.18476C1.00003 3.18452 1.00005 3.1844 1.00004 3.18443L1 3.18704Z" stroke="#EC6330" stroke-width="2" stroke-linecap="round" stroke-linejoin="round"/>
<path d="M4.49643 8.17639V1H12.9857V8.17639C12.9857 10.5207 11.0853 12.4211 8.74109 12.4211C6.39683 12.4211 4.49643 10.5207 4.49643 8.17639Z" stroke="#EC6330" stroke-width="2"/>
<mask id="path-4-inside-1" fill="white">
<path d="M3.49634 17H13.9004C13.9475 17 13.9857 16.9618 13.9857 16.9148C13.9857 15.9735 13.2226 15.2105 12.2814 15.2105H5.28581C4.29751 15.2105 3.49634 16.0117 3.49634 17Z"/>
</mask>
<path d="M3.49634 15H13.9004V19H3.49634V15ZM12.2814 17.2105H5.28581V13.2105H12.2814V17.2105ZM5.28581 17.2105C5.40208 17.2105 5.49634 17.1163 5.49634 17H1.49634C1.49634 14.9071 3.19295 13.2105 5.28581 13.2105V17.2105ZM11.9857 16.9148C11.9857 17.0781 12.1181 17.2105 12.2814 17.2105V13.2105C14.3272 13.2105 15.9857 14.869 15.9857 16.9148H11.9857ZM13.9004 15C12.8429 15 11.9857 15.8573 11.9857 16.9148H15.9857C15.9857 18.0664 15.0521 19 13.9004 19V15Z" fill="#EC6330" mask="url(#path-4-inside-1)"/>
<rect x="7.67236" y="12.6259" width="2.13671" height="3.2807" fill="#EC6330"/>
</svg>
