<svg width="27" height="18" viewBox="0 0 27 18" fill="none" xmlns="http://www.w3.org/2000/svg">
<path fill-rule="evenodd" clip-rule="evenodd" d="M18.7324 11.504C18.7324 12.0541 19.1783 12.5 19.7284 12.5C20.2785 12.5 20.7244 12.0541 20.7244 11.504V7.2375H25.0457C25.591 7.2375 26.0331 6.79542 26.0331 6.2501C26.0331 5.70477 25.591 5.2627 25.0457 5.2627H20.7244V0.996037C20.7244 0.445941 20.2785 0 19.7284 0C19.1783 0 18.7324 0.445941 18.7324 0.996037V5.2627H14.4112C13.8658 5.2627 13.4238 5.70477 13.4238 6.2501C13.4238 6.79542 13.8658 7.2375 14.4112 7.2375H18.7324V11.504Z" fill="white"/>
<path fill-rule="evenodd" clip-rule="evenodd" d="M4.20986 3.84071C4.52047 2.79866 5.59803 1.55929 6.50399 1.2019C7.17332 0.937826 8.93215 0.931485 9.62295 1.19061C10.6075 1.55969 11.6645 2.76874 11.996 3.90509C13.0909 7.65706 8.70446 10.577 5.56124 8.18858C4.29039 7.2228 3.73461 5.43488 4.20986 3.84071ZM0.563245 13.4888C0.5366 11.7462 1.63922 10.8771 4.35153 10.5027C6.00636 10.2741 11.4714 10.3817 12.8999 10.6911C15.9316 11.3476 16.6089 13.804 14.373 16.0317C13.1055 17.2944 10.9467 17.8511 8.55513 17.9718C7.08185 18.0461 5.77788 17.9839 4.67565 17.6502C2.17949 16.8951 0.590488 15.287 0.563245 13.4888Z" fill="white"/>
</svg>
