<svg width="12" height="19" viewBox="0 0 12 19" fill="none" xmlns="http://www.w3.org/2000/svg">
<path fill-rule="evenodd" clip-rule="evenodd" d="M4.90324 0.319138C5.32875 -0.106379 6.01865 -0.106379 6.44417 0.319138L10.9855 4.5881C11.411 5.01361 11.411 5.70351 10.9855 6.12903C10.56 6.55455 9.8701 6.55455 9.44459 6.12903L6.76331 3.72015V9.60215L6.76312 15.2799L9.48715 12.871C9.91267 12.4455 10.6026 12.4455 11.0281 12.871C11.4536 13.2965 11.4536 13.9864 11.0281 14.4119L6.44399 18.6809C6.01847 19.1064 5.32857 19.1064 4.90305 18.6809L0.361701 14.4119C-0.063816 13.9864 -0.063816 13.2965 0.361701 12.871C0.787218 12.4455 1.47712 12.4455 1.90264 12.871L4.58391 15.2799V9.39785L4.5841 3.72015L1.86007 6.12903C1.43456 6.55455 0.744656 6.55455 0.319138 6.12903C-0.106379 5.70351 -0.106379 5.01361 0.319138 4.5881L4.90324 0.319138Z" fill="#EC6330"/>
</svg>
